<svg width="48" height="48" viewBox="0 0 48 48" fill="none" xmlns="http://www.w3.org/2000/svg">
<rect width="48" height="48" fill="white"/>
<path d="M9 27V35C9 37.2091 10.7909 39 13 39H34C36.2091 39 38 37.2091 38 35V27" stroke="#0A8277" stroke-width="3"/>
<path d="M10.6585 28H8C5.79086 28 4 26.2091 4 24V24C4 21.7909 5.79086 20 8 20H39C41.2091 20 43 21.7909 43 24V24C43 26.2091 41.2091 28 39 28H36.3415" stroke="#0A8277" stroke-width="3"/>
<path d="M13 39V43" stroke="#0A8277" stroke-width="3" stroke-linecap="round"/>
<path d="M35 39V43" stroke="#0A8277" stroke-width="3" stroke-linecap="round"/>
<path d="M37 9.5C37 8.67157 37.6716 8 38.5 8V8C39.3284 8 40 8.67157 40 9.5V23H37V9.5Z" fill="#FF9A17" fill-opacity="0.74"/>
<path d="M35.6606 6.69654C35.8104 5.72058 36.6501 5 37.6375 5H39.3625C40.3499 5 41.1896 5.72058 41.3394 6.69654L42 11H35L35.6606 6.69654Z" fill="#FF9A17" fill-opacity="0.74"/>
</svg>
